<mxfile host="app.diagrams.net" modified="2023-08-23T11:40:42.070Z" agent="Mozilla/5.0 (Macintosh; Intel Mac OS X 10_15_7) AppleWebKit/537.36 (KHTML, like Gecko) Chrome/116.0.0.0 Safari/537.36" version="21.6.9" etag="gHYP_q0CJXvTYhExmxnP" type="github">
  <diagram name="PÃ¡gina-1" id="4091U0TwikFMBrN7Cr37">
    <mxGraphModel>
      <root>
        <mxCell id="0" />
        <mxCell id="1" parent="0" />
      </root>
    </mxGraphModel>
  </diagram>
</mxfile>
